<svg fill="none" height="266" viewBox="0 0 311 266" width="311" xmlns="http://www.w3.org/2000/svg"><circle cx="124.456" cy="187.936" fill="#fff" r="77.3021"/><path clip-rule="evenodd" d="m310.966 55.3169c.003-.236.005-.4723.005-.709 0-30.1591-24.449-54.6079-54.608-54.6079s-54.608 24.4488-54.608 54.6079c0 .2367.002.473.005.709z" fill="#ff8446" fill-rule="evenodd"/><path clip-rule="evenodd" d="m310.968 55.3171c.003-.236.004-.4723.004-.709 0-30.1591-24.448-54.60785586-54.607-54.60785586-30.16 0-54.608 24.44875586-54.608 54.60785586 0 .2367.001.473.004.709z" fill="#51cfff" fill-rule="evenodd"/><path d="m264.166 55.3169h46.8068v55.3171h-46.8068z" fill="#fff"/><ellipse cx="124.455" cy="187.936" fill="#51cfff" rx="37.5872" ry="36.8781"/><path d="m201.757 110.634h29.7861v48.2251h-29.7861z" fill="#fff"/><path d="m201.757 187.227h29.7861v29.7861h-29.7861z" fill="#ff8446"/><path d="m202 245h30v20h-30z" fill="#fff"/><path d="m231.544 110.634h7.09193v114.889h-7.09193z" fill="#231f21"/><g fill="#fff"><path d="m285.796 110.634h7.09193v92.1951h-7.09193z"/><path d="m267.712 110.634h7.09193v92.1951h-7.09193z"/><path d="m249.627 110.634h7.09193v92.1951h-7.09193z"/></g><circle cx="271.259" cy="225.523" fill="#51cfff" r="39.7148"/><circle cx="271.258" cy="225.523" fill="#fff" r="19.8574"/><g fill="#d8d8d8"><path d="m55 265h55v9h-55z" transform="matrix(-1 0 0 -1 110 530)"/><path d="m55.4404 254.508h55.4404v7.1536h-55.4404z" transform="matrix(-1 0 0 -1 110.8808 509.016)"/><path d="m55.4404 245.566h55.4404v5.3652h-55.4404z" transform="matrix(-1 0 0 -1 110.8808 491.132)"/><path d="m55.4404 234.835h55.4404v3.5768h-55.4404z" transform="matrix(-1 0 0 -1 110.8808 469.67)"/><path d="m55.4404 225.894h55.4404v1.7884h-55.4404z" transform="matrix(-1 0 0 -1 110.8808 451.788)"/></g><path clip-rule="evenodd" d="m207.431 85.4723s24.878-27.3187 49.757-27.3187 49.757 27.3187 49.757 27.3187-24.878 22.3247-49.757 22.3247-49.757-22.3247-49.757-22.3247z" fill="#fff" fill-rule="evenodd" stroke="#231f21" stroke-width="7.09193"/><circle cx="257.783" cy="82.9753" fill="#51cfff" r="20.5666"/><circle cx="257.783" cy="82.9753" fill="#231f21" r="10.6379"/><circle cx="265.584" cy="74.4649" fill="#fff" r="4.25516"/><g fill="#d8d8d8"><path d="m201.755 55.3171h55.4404v8.942h-55.4404z" transform="matrix(0 1 -1 0 257.0721 -146.4379)"/><path d="m191.024 55.3171h55.4404v7.1536h-55.4404z" transform="matrix(0 1 -1 0 246.3411 -135.7069)"/><path d="m182.084 55.3169h55.4404v5.3652h-55.4404z" transform="matrix(0 1 -1 0 237.4009 -126.7671)"/><path d="m171.352 55.3169h55.4404v3.5768h-55.4404z" transform="matrix(0 1 -1 0 226.6689 -116.0351)"/><path d="m162.41 55.3171h55.4404v1.7884h-55.4404z" transform="matrix(0 1 -1 0 217.7271 -107.0929)"/></g></svg>