<svg fill="none" height="209" viewBox="0 0 209 209" width="209" xmlns="http://www.w3.org/2000/svg"><g clip-rule="evenodd" fill-rule="evenodd"><path d="m208.03 208.03v-104.015h-104.015v104.015z" fill="#fff"/><path d="m104.015 208.03v-104.015h-104.015v104.015z" fill="#231f21"/><path d="m120.562 208.03h41.371c.086-25.365 20.571-45.899 45.835-45.899.089 0 .174.007.262.007v-41.568c-.088 0-.173-.007-.262-.007-48.111 0-87.117 39.145-87.206 87.467z" fill="#51cfff"/><path d="m161.933 208.03c.03-8.713 2.466-16.856 6.677-23.793.041-.067.12-.2.12-.2l-37.068-18.658s-.105.188-.158.283c-6.946 12.551-10.913 26.995-10.942 42.368z" fill="#ff8446"/><path d="m.261598 161.988c25.316402 0 45.837202 20.554 45.837202 45.907 0 .046-.0038.089-.0038.135h41.3693c0-.046.0029-.089.0029-.135 0-48.236-39.0433-87.332-87.205602-87.332-.088773 0-.1737691.006-.261598.006v41.427c.0878289 0 .172825-.008.261598-.008z" fill="#51cfff"/><path d="m104.015 104.015v-52.0074h-52.0072v52.0074z" fill="#fff"/><path d="m52.0075 52.0076v-52.00753515h-52.0075v52.00753515z" fill="#fff"/><path d="m52.0075.00006485h-52.0075l52.0075 52.00753515z" fill="#51cfff"/><path d="m104.015 52.0076h-52.0072l52.0072 52.0074z" fill="#08e1c0"/><path d="m52.0075 104.015v-52.0076h-52.0075v52.0076z" fill="#ff8446"/></g></svg>