<svg height="200" viewBox="0 0 1024 1024" width="200" xmlns="http://www.w3.org/2000/svg"><path d="m513.577807 1018.488425a24.572224 24.572224 0 0 1 -20.193066-10.568544l-301.382693-434.565601a24.680756 24.680756 0 0 1 -.937879-1.458012 373.881965 373.881965 0 0 1 -34.076952-75.366151c-12.077751-37.311405-18.198538-76.196522-18.198537-115.589486 0-206.664086 168.133233-374.798343 374.798342-374.798343 47.94343 0 96.038396 11.579119 142.947702 34.415857 42.703185 20.788968 83.766106 51.042731 118.751244 87.488954 34.08719 35.511415 62.431408 76.862047 81.96714 119.582638 20.362007 44.524677 31.122018 90.612827 31.120994 133.280177 0 39.402179-6.12181 78.286272-18.194442 115.573104-8.337498 25.72819-19.85928 51.384709-33.324396 74.200969-.304094.516038-.627642 1.020814-.968595 1.514327l-302.115795 435.719519a24.576319 24.576319 0 0 1 -20.193067 10.570592zm-280.686899-472.415569 280.683828 404.718319 281.403618-405.841521c11.469563-19.570544 21.298863-41.546195 28.44763-63.607852 10.484586-32.383445 15.802646-66.175756 15.802646-100.430864.004096-72.181868-37.153727-153.987233-99.396739-218.828867-65.145728-67.868239-147.608428-106.792263-226.243845-106.792263-179.564913 0-325.651847 146.086934-325.651847 325.651847 0 34.245892 5.317036 68.039228 15.804694 100.439054a324.581887 324.581887 0 0 0 29.150015 64.692147zm582.802694 12.12485h.010239zm-302.760842 18.642904c-96.8616 0-175.66391-78.803334-175.66391-175.664934s78.80231-175.66391 175.66391-175.663909c96.862623 0 175.66391 78.80231 175.663909 175.663909s-78.801286 175.664934-175.663909 175.664934zm0-302.182348c-69.762427 0-126.517414 56.756011-126.517415 126.517414s56.756012 126.518438 126.517415 126.518438 126.517414-56.756011 126.517414-126.518438-56.754987-126.517414-126.517414-126.517414z" fill="#1296db"/></svg>